<svg width="24" height="24" viewBox="0 0 24 24" fill="none" xmlns="http://www.w3.org/2000/svg">
<g clip-path="url(#clip0_3_1103)">
<path d="M3.515 20.486C1.27461 18.2335 0.0188561 15.1846 0.0230819 12.0076C0.0273077 8.83067 1.29117 5.78505 3.53754 3.53854C5.78391 1.29204 8.82946 0.0279994 12.0064 0.0235864C15.1833 0.0191734 18.2324 1.27475 20.485 3.515C22.7254 5.76748 23.9811 8.81645 23.9769 11.9934C23.9727 15.1703 22.7088 18.216 20.4625 20.4625C18.2161 22.709 15.1705 23.973 11.9936 23.9774C8.81665 23.9818 5.7676 22.7263 3.515 20.486ZM1.8 12C1.8 14.0174 2.39822 15.9894 3.51901 17.6668C4.6398 19.3442 6.23282 20.6516 8.09663 21.4236C9.96043 22.1956 12.0113 22.3976 13.9899 22.004C15.9685 21.6104 17.786 20.639 19.2125 19.2125C20.639 17.786 21.6104 15.9685 22.004 13.9899C22.3976 12.0113 22.1956 9.96044 21.4236 8.09663C20.6516 6.23282 19.3442 4.6398 17.6668 3.51901C15.9894 2.39822 14.0174 1.8 12 1.8C9.29568 1.80291 6.70296 2.87849 4.79072 4.79073C2.87848 6.70297 1.80291 9.29569 1.8 12ZM10.2 17.4C10.2 17.044 10.3056 16.696 10.5034 16.4C10.7011 16.104 10.9823 15.8733 11.3112 15.737C11.6401 15.6008 12.002 15.5651 12.3512 15.6346C12.7003 15.704 13.0211 15.8755 13.2728 16.1272C13.5245 16.3789 13.696 16.6997 13.7654 17.0488C13.8349 17.398 13.7992 17.7599 13.663 18.0888C13.5267 18.4177 13.296 18.6989 13 18.8966C12.704 19.0944 12.356 19.2 12 19.2C11.5226 19.2 11.0648 19.0104 10.7272 18.6728C10.3896 18.3352 10.2 17.8774 10.2 17.4ZM10.8 13.2L10.2 6C10.2 5.337 11.338 4.8 12 4.8C12.662 4.8 13.8 5.337 13.8 6L13.2 13.2C13.2 13.5183 13.0736 13.8235 12.8485 14.0485C12.6235 14.2736 12.3183 14.4 12 14.4C11.6817 14.4 11.3765 14.2736 11.1515 14.0485C10.9264 13.8235 10.8 13.5183 10.8 13.2Z" fill="#FF3333"/>
</g>
<defs>
<clipPath id="clip0_3_1103">
<rect width="23.999" height="24" fill="white"/>
</clipPath>
</defs>
</svg>
