<svg xmlns="http://www.w3.org/2000/svg" xmlns:xlink="http://www.w3.org/1999/xlink" width="24" height="24" viewBox="0 0 24 24">
  <defs>
    <linearGradient id="linear-gradient" x1="0.5" x2="0.5" y2="1" gradientUnits="objectBoundingBox">
      <stop offset="0" stop-color="#009fda"/>
      <stop offset="1" stop-color="#004e9b"/>
    </linearGradient>
  </defs>
  <g id="Alerta-azul-24x24" transform="translate(-705 -100)">
    <path id="Trazado_935" data-name="Trazado 935" d="M0,0H24V24H0Z" transform="translate(705 100)" fill="none"/>
    <path id="Exclusi贸n_1" data-name="Exclusi贸n 1" d="M-1545-968a10.928,10.928,0,0,1-7.778-3.222A10.928,10.928,0,0,1-1556-979a10.928,10.928,0,0,1,3.222-7.778A10.928,10.928,0,0,1-1545-990a10.929,10.929,0,0,1,7.779,3.222A10.927,10.927,0,0,1-1534-979a10.927,10.927,0,0,1-3.222,7.778A10.929,10.929,0,0,1-1545-968Zm0-20a9.01,9.01,0,0,0-9,9,9.01,9.01,0,0,0,9,9,9.01,9.01,0,0,0,9-9A9.01,9.01,0,0,0-1545-988Z" transform="translate(2262 1091)" fill="url(#linear-gradient)"/>
    <g id="Grupo_1522" data-name="Grupo 1522" transform="translate(18.2 -0.301)">
      <path id="Uni贸n_186" data-name="Uni贸n 186" d="M.534,7.645q0-.057,0-.113l-.5-5.216A2.083,2.083,0,0,1,0,1.957H0c0-.007,0-.013,0-.02A1.871,1.871,0,0,1,1.8,0,1.871,1.871,0,0,1,3.6,1.935a2.07,2.07,0,0,1-.078.564l-.5,5.187A1.3,1.3,0,0,1,1.778,9,1.3,1.3,0,0,1,.534,7.645Z" transform="translate(697 105.001)" fill="url(#linear-gradient)"/>
      <circle id="Elipse_417" data-name="Elipse 417" cx="1.8" cy="1.8" r="1.8" transform="translate(697 116)" fill="url(#linear-gradient)"/>
    </g>
  </g>
</svg>
