<svg width="22" height="24" viewBox="0 0 22 24" fill="none" xmlns="http://www.w3.org/2000/svg">
<g clip-path="url(#clip0_108_2661)">
<path fill-rule="evenodd" clip-rule="evenodd" d="M6.9873 6V10H14.9728V6C14.9728 3.79 13.186 2 10.98 2C8.77405 2 6.9873 3.79 6.9873 6ZM16.9691 6V10H21.0018C21.5508 10 22 10.45 22 11V22.93C22 23.48 21.5508 23.93 21.0018 23.93L0.998185 24C0.449183 24 0 23.55 0 23V11C0 10.45 0.449183 10 0.998185 10H4.99093V6C4.99093 2.69 7.67604 0 10.98 0C14.284 0 16.9691 2.69 16.9691 6ZM19.4637 21.93C19.7398 21.93 19.9637 21.7061 19.9637 21.43V12.5C19.9637 12.2239 19.7398 12 19.4637 12H2.49637C2.22023 12 1.99637 12.2239 1.99637 12.5V21.43C1.99637 21.7061 2.22023 21.93 2.49637 21.93H19.4637ZM16.9391 15.96C17.4904 15.96 17.9373 16.4077 17.9373 16.96C17.9373 17.5122 17.4904 17.96 16.9391 17.96C16.3878 17.96 15.9409 17.5122 15.9409 16.96C15.9409 16.4077 16.3878 15.96 16.9391 15.96ZM12.0979 16.96C12.0979 16.4077 11.651 15.96 11.0997 15.96C10.5485 15.96 10.1016 16.4077 10.1016 16.96C10.1016 17.5122 10.5485 17.96 11.0997 17.96C11.651 17.96 12.0979 17.5122 12.0979 16.96ZM5.09071 15.96C5.642 15.96 6.0889 16.4077 6.0889 16.96C6.0889 17.5122 5.642 17.96 5.09071 17.96C4.53943 17.96 4.09253 17.5122 4.09253 16.96C4.09253 16.4077 4.53943 15.96 5.09071 15.96Z" fill="url(#paint0_linear_108_2661)"/>
</g>
<defs>
<linearGradient id="paint0_linear_108_2661" x1="11" y1="0" x2="11" y2="24" gradientUnits="userSpaceOnUse">
<stop stop-color="#009FDA"/>
<stop offset="1" stop-color="#004E9B"/>
</linearGradient>
<clipPath id="clip0_108_2661">
<rect width="22" height="24" fill="white"/>
</clipPath>
</defs>
</svg>
