<svg width="24" height="24" viewBox="0 0 24 24" fill="none" xmlns="http://www.w3.org/2000/svg">
<path fill-rule="evenodd" clip-rule="evenodd" d="M24 1V13C24 13.6 23.6 14 23 14C22.4 14 22 13.6 22 13V3C22 2.4 21.6 2 21 2H3C2.4 2 2 2.4 2 3V13C2 13.6 2.4 14 3 14H7C7.6 14 8 14.4 8 15C8 15.6 7.6 16 7 16H1C0.4 16 0 15.6 0 15V1C0 0.4 0.4 0 1 0H23C23.6 0 24 0.4 24 1ZM19.3157 13.418C17.1826 11.2822 13.5952 11.5735 11.7531 14.1947C10.6865 15.8451 10.7835 17.9809 11.85 19.6313C13.4013 21.8642 16.407 22.3496 18.54 20.8934L21.3517 23.7088C21.7396 24.0971 22.3213 24.0971 22.7091 23.7088C23.097 23.3204 23.097 22.7379 22.7091 22.3496L19.8974 19.5342C21.1578 17.5926 20.9639 15.0684 19.3157 13.418ZM18.2491 18.4663C17.0857 20.2138 14.5648 20.2138 13.4013 18.4663C12.7226 17.4955 12.7226 16.2334 13.4013 15.2626C14.5648 13.5151 17.0857 13.5151 18.2491 15.2626C18.9278 16.2334 18.9278 17.4955 18.2491 18.4663ZM4.7 4C4.3134 4 4 4.3134 4 4.7V10.1826C4 10.5692 4.3134 10.8826 4.7 10.8826H7.57758C7.73008 10.8826 8.03965 10.8513 8.50629 10.7887C8.85703 10.7418 9.11933 10.6667 9.29318 10.5634C9.57377 10.3975 9.79489 10.1721 9.95654 9.88732C10.1182 9.6025 10.199 9.28169 10.199 8.92488C10.199 8.4867 10.0846 8.12363 9.85589 7.83568C9.63731 7.55378 9.29858 7.3526 8.83971 7.23216C8.82627 7.22864 8.82535 7.20952 8.83835 7.20464C9.13399 7.0936 9.36032 6.94557 9.51735 6.76056C9.76439 6.46948 9.88792 6.1205 9.88792 5.71361C9.88792 5.22848 9.71407 4.8216 9.36637 4.49296C9.02173 4.16432 8.52612 4 7.87953 4H4.7ZM6.37074 6.69953C6.2161 6.69953 6.09074 6.57417 6.09074 6.41953V5.67437C6.09074 5.51973 6.2161 5.39437 6.37074 5.39437H7.00572C7.31986 5.39437 7.53946 5.4507 7.66451 5.56338C7.7926 5.67606 7.85665 5.83255 7.85665 6.03286C7.85665 6.24883 7.7926 6.41471 7.66451 6.53052C7.53946 6.64319 7.31529 6.69953 6.99199 6.69953H6.37074ZM6.37074 9.40376C6.2161 9.40376 6.09074 9.2784 6.09074 9.12376V8.28939C6.09074 8.13475 6.2161 8.00939 6.37074 8.00939H7.14297C7.50591 8.00939 7.75905 8.07199 7.9024 8.19718C8.0488 8.31925 8.122 8.482 8.122 8.68545C8.122 8.90454 8.0488 9.07981 7.9024 9.21127C7.756 9.33959 7.50438 9.40376 7.14754 9.40376H6.37074ZM11.1502 9.47191C10.9827 9.48808 10.8653 9.64852 10.926 9.80546C11.0554 10.14 11.266 10.4083 11.5578 10.6103C11.936 10.8701 12.5688 11 13.4563 11C14.0846 11 14.5803 10.9202 14.9432 10.7606C15.3092 10.5978 15.5761 10.3803 15.7438 10.108C15.9146 9.83568 16 9.55556 16 9.26761C16 8.98279 15.9192 8.72144 15.7575 8.48357C15.5989 8.2457 15.3687 8.0626 15.0667 7.93427C14.7648 7.80595 14.3042 7.70579 13.6851 7.6338C13.2764 7.58372 13.0111 7.52739 12.8891 7.46479C12.7671 7.40219 12.7061 7.30986 12.7061 7.18779C12.7061 7.07825 12.7533 6.98592 12.8479 6.9108C12.9455 6.83255 13.0995 6.79343 13.31 6.79343C13.5173 6.79343 13.6942 6.84351 13.8406 6.94366C13.8924 6.98011 13.9371 7.02651 13.9745 7.08285C14.0495 7.19569 14.1674 7.28587 14.3022 7.27225L15.4737 7.1539C15.6564 7.13544 15.7734 6.94795 15.6877 6.7855C15.5957 6.61102 15.4909 6.46342 15.3732 6.34272C15.1902 6.1518 14.96 6.01095 14.6824 5.92019C14.4079 5.82942 13.9809 5.78404 13.4015 5.78404C12.8525 5.78404 12.4148 5.84351 12.0884 5.96244C11.7621 6.07825 11.5059 6.25509 11.3199 6.49296C11.1338 6.73083 11.0408 7.01408 11.0408 7.34272C11.0408 7.64319 11.1262 7.9108 11.297 8.14554C11.4708 8.38028 11.6828 8.54773 11.9329 8.64789C12.186 8.74491 12.6359 8.85133 13.2825 8.96714C13.7156 9.04538 13.9825 9.11111 14.0831 9.16432C14.2234 9.23944 14.2936 9.34585 14.2936 9.48357C14.2936 9.60563 14.2402 9.70736 14.1334 9.78873C13.9962 9.89828 13.8025 9.95305 13.5524 9.95305C13.3237 9.95305 13.1407 9.90454 13.0034 9.80751C12.912 9.74287 12.8341 9.64975 12.7697 9.52816C12.7089 9.41322 12.5917 9.33278 12.4622 9.34527L11.1502 9.47191Z" fill="url(#paint0_linear_1957_2885)"/>
<defs>
<linearGradient id="paint0_linear_1957_2885" x1="12" y1="0" x2="12" y2="24" gradientUnits="userSpaceOnUse">
<stop stop-color="#009FDA"/>
<stop offset="1" stop-color="#004E9B"/>
</linearGradient>
</defs>
</svg>
