<svg xmlns="http://www.w3.org/2000/svg" xmlns:xlink="http://www.w3.org/1999/xlink" width="24" height="24" viewBox="0 0 24 24">
  <defs>
    <linearGradient id="linear-gradient" x1="0.5" x2="0.5" y2="1" gradientUnits="objectBoundingBox">
      <stop offset="0" stop-color="#009fda"/>
      <stop offset="1" stop-color="#004e9b"/>
    </linearGradient>
  </defs>
  <g id="Cont-1" transform="translate(-734 -487)">
    <rect id="Fondo" width="24" height="24" transform="translate(734 487)" fill="none"/>
    <path id="arroba" d="M12.855,11.141A5.642,5.642,0,0,1,11.2,7.007,6.888,6.888,0,0,1,18.282,0a5.923,5.923,0,0,1,4.166,1.553h0A5.118,5.118,0,0,1,24,5.315C24,8,22.448,9.692,20.4,9.692a1.471,1.471,0,0,1-1.629-1.417h-.038A2.792,2.792,0,0,1,16.29,9.692a2.03,2.03,0,0,1-1.439-.546L13.8,10.2a4.837,4.837,0,0,0,3.683,1.464,6.3,6.3,0,0,0,2.745-.589l.341,1.067A7.966,7.966,0,0,1,17.1,12.8a6.05,6.05,0,0,1-4.251-1.657Zm-.215-4.3A4.855,4.855,0,0,0,13.8,10.2l1.05-1.05a2.484,2.484,0,0,1-.677-1.85A4.261,4.261,0,0,1,18.6,3.016a5.964,5.964,0,0,1,2.025.355l.913-.912A4.552,4.552,0,0,0,18.07,1.122a5.429,5.429,0,0,0-5.43,5.719Zm8.218-3.365-.568,3.4c-.19,1.084-.058,1.581.473,1.6C21.577,8.5,22.6,7.485,22.6,5.37a4.216,4.216,0,0,0-1.057-2.912l-.912.912a2.185,2.185,0,0,1,.227.106ZM17.013,8.221c.7,0,1.439-.864,1.61-1.931l.163-1.075L16.218,7.782a.844.844,0,0,0,.8.439Zm-.947-1.14a1.461,1.461,0,0,0,.152.7l2.567-2.567.1-.672a2.393,2.393,0,0,0-.587-.073A2.451,2.451,0,0,0,16.066,7.08Z" transform="translate(733 488.003)" fill="url(#linear-gradient)"/>
    <g id="tlf" transform="translate(553.596 251.851)">
      <g id="Grupo_1293" data-name="Grupo 1293" transform="translate(181.404 240.149)">
        <g id="Grupo_1292" data-name="Grupo 1292">
          <path id="Trazado_912" data-name="Trazado 912" d="M199.752,255.047" transform="translate(-185.403 -242.858)" stroke="#0059a0" stroke-linejoin="bevel" stroke-width="2" fill="url(#linear-gradient)"/>
          <g id="Grupo_1291" data-name="Grupo 1291">
            <path id="Trazado_913" data-name="Trazado 913" d="M194.648,258.149a5.51,5.51,0,0,1-1.227-.137c-5.231-1.184-10.513-6.247-11.774-11.288-.959-3.836,1.165-5.557,2.122-6.119a3.316,3.316,0,0,1,2.135-.425,4.569,4.569,0,0,1,.646.142,1.419,1.419,0,0,1,.9.8c.454,1.055,1.256,3.511,1.289,3.615.481,1.366-.826,2.393-1.384,2.832l-.052.04a10.537,10.537,0,0,0,4.852,4.871,8.939,8.939,0,0,0,1.051-1.058l.188-.211a1.649,1.649,0,0,1,2.1-.371l2.928,1.723a1.863,1.863,0,0,1,.784.687,1.308,1.308,0,0,1,.1.2,2.127,2.127,0,0,1,.015,1.244l-.019.088a3.9,3.9,0,0,1-.594,1.368A4.842,4.842,0,0,1,194.648,258.149Zm-9.2-16.364a1.671,1.671,0,0,0-.847.232c-.971.569-2,1.78-1.363,4.311.987,3.942,5.46,8.937,10.547,10.088a3.447,3.447,0,0,0,3.558-1.169,2.292,2.292,0,0,0,.355-.791l.021-.1a2.709,2.709,0,0,0,.051-.283c-.04-.025-.093-.053-.133-.075l-.131-.074-2.831-1.669-.067.054-.174.2c-.962,1.088-1.767,1.895-2.631,1.6a11.919,11.919,0,0,1-6.095-6.031,1.275,1.275,0,0,1,.2-1.394,2.252,2.252,0,0,1,.2-.2c.061-.053.142-.119.238-.193.234-.183.944-.742.847-1.019-.014-.041-.769-2.352-1.2-3.4a2.655,2.655,0,0,0-.311-.063A1.531,1.531,0,0,0,185.444,241.785Zm6.889,10.769Zm-5.154-5.192h0Z" transform="translate(-181.404 -240.149)" fill="url(#linear-gradient)"/>
          </g>
          <path id="Trazado_914" data-name="Trazado 914" d="M201.449,256.888" transform="translate(-185.403 -243.192)" stroke="#0059a0" stroke-linejoin="bevel" stroke-width="2" fill="url(#linear-gradient)"/>
        </g>
      </g>
    </g>
  </g>
</svg>
