<svg width="24" height="24" viewBox="0 0 24 24" fill="none" xmlns="http://www.w3.org/2000/svg">
<path fill-rule="evenodd" clip-rule="evenodd" d="M24 4V19V20C24 20.55 23.55 21 23 21H1C0.45 21 0 20.55 0 20V4C0 3.45 0.45 3 1 3H23C23.55 3 24 3.45 24 4ZM2 18.5C2 18.7761 2.22386 19 2.5 19H21.5C21.7761 19 22 18.7761 22 18.5V5.5C22 5.22386 21.7761 5 21.5 5H2.5C2.22386 5 2 5.22386 2 5.5V18.5ZM5 6.86011H19C19.5523 6.86011 20 7.30782 20 7.86011V7.90011C20 8.45239 19.5523 8.90011 19 8.90011H5C4.44772 8.90011 4 8.45239 4 7.90011V7.86011C4 7.30782 4.44772 6.86011 5 6.86011ZM19 11.22H13.77C13.2177 11.22 12.77 11.6677 12.77 12.22V12.26C12.77 12.8123 13.2177 13.26 13.77 13.26H19C19.5523 13.26 20 12.8123 20 12.26V12.22C20 11.6677 19.5523 11.22 19 11.22ZM13.77 15.1001H19C19.5523 15.1001 20 15.5478 20 16.1001V16.1401C20 16.6924 19.5523 17.1401 19 17.1401H13.77C13.2177 17.1401 12.77 16.6924 12.77 16.1401V16.1001C12.77 15.5478 13.2177 15.1001 13.77 15.1001ZM9.87002 11.6651C9.87002 12.2057 9.66002 12.7145 9.28002 13.0855C8.88002 13.4671 8.37002 13.6685 7.82002 13.6685C7.41002 13.6685 7.01002 13.5519 6.68002 13.3293C6.34002 13.1279 6.08002 12.8099 5.93002 12.4389C5.77002 12.0785 5.73002 11.6651 5.81002 11.2836C5.88002 10.902 6.08002 10.5416 6.37002 10.2554C6.65002 9.97981 7.03002 9.77842 7.42002 9.70422C7.82002 9.63002 8.24002 9.67242 8.61002 9.82081C8.98002 9.97981 9.30002 10.2342 9.53002 10.5628C9.75002 10.8914 9.87002 11.273 9.87002 11.6651ZM11.27 17.1399C11.46 17.1399 11.61 16.9599 11.58 16.7799C11.51 16.1999 11.3 15.6399 11 15.1399C10.66 14.5899 10.16 14.1299 9.56996 13.7999C9.46996 13.7399 9.34996 13.7599 9.24996 13.8199C8.81996 14.0799 8.32996 14.2199 7.80996 14.2199C7.28996 14.2199 6.79996 14.0799 6.36996 13.8199C6.27996 13.7599 6.14996 13.7399 6.04996 13.7999C5.44996 14.1299 4.95996 14.5899 4.62996 15.1399C4.30996 15.6399 4.10996 16.1999 4.04996 16.7799C4.00996 16.9599 4.15996 17.1399 4.34996 17.1399H11.27Z" fill="url(#paint0_linear_108_3220)"/>
<defs>
<linearGradient id="paint0_linear_108_3220" x1="12" y1="3" x2="12" y2="21" gradientUnits="userSpaceOnUse">
<stop stop-color="#009FDA"/>
<stop offset="1" stop-color="#004E9B"/>
</linearGradient>
</defs>
</svg>
