<svg width="24" height="25" viewBox="0 0 24 25" fill="none" xmlns="http://www.w3.org/2000/svg">
<path fill-rule="evenodd" clip-rule="evenodd" d="M8.65478 9.62908C6.27511 10.3461 4.23084 11.8079 2.8035 13.7344C2.47471 14.1781 1.84845 14.2713 1.40469 13.9425C0.960932 13.6138 0.867726 12.9875 1.19651 12.5437C3.62483 9.26621 7.56238 7.13904 12 7.13904C16.4376 7.13904 20.3752 9.26621 22.8035 12.5437C23.1323 12.9875 23.0391 13.6138 22.5953 13.9425C22.1516 14.2713 21.5253 14.1781 21.1965 13.7344C19.7692 11.8079 17.7249 10.3461 15.3452 9.62907C16.0631 10.4264 16.5 11.4817 16.5 12.639C16.5 15.1243 14.4853 17.139 12 17.139C9.51472 17.139 7.5 15.1243 7.5 12.639C7.5 11.4817 7.93691 10.4264 8.65478 9.62908ZM9.5 12.639C9.5 11.2583 10.6193 10.139 12 10.139C13.3807 10.139 14.5 11.2583 14.5 12.639C14.5 14.0198 13.3807 15.139 12 15.139C10.6193 15.139 9.5 14.0198 9.5 12.639Z" fill="url(#paint0_linear_7_2)"/>
<defs>
<linearGradient id="paint0_linear_7_2" x1="12" y1="7.13904" x2="12" y2="17.139" gradientUnits="userSpaceOnUse">
<stop stop-color="#009FDA"/>
<stop offset="1" stop-color="#004E9B"/>
</linearGradient>
</defs>
</svg>
