<svg width="24" height="25" viewBox="0 0 24 25" fill="none" xmlns="http://www.w3.org/2000/svg">
<path fill-rule="evenodd" clip-rule="evenodd" d="M20.7071 19.4319C21.0976 19.8225 21.0976 20.4556 20.7071 20.8461C20.3166 21.2367 19.6834 21.2367 19.2929 20.8461L3.29288 4.84615C2.90236 4.45562 2.90236 3.82246 3.29288 3.43193C3.68341 3.04141 4.31657 3.04141 4.70709 3.43193L20.7071 19.4319ZM15.3452 9.62905C16.0112 10.3687 16.4353 11.3304 16.4932 12.3896L11.2623 7.1587C11.5065 7.14563 11.7525 7.13902 12 7.13902C16.4376 7.13902 20.3752 9.26619 22.8035 12.5437C23.1323 12.9875 23.0391 13.6137 22.5953 13.9425C22.1516 14.2713 21.5253 14.1781 21.1965 13.7343C19.7692 11.8078 17.7249 10.346 15.3452 9.62905ZM1.19651 12.5437C2.1783 11.2186 3.4068 10.0815 4.8153 9.197L6.27265 10.6544C4.90883 11.4359 3.72703 12.4878 2.80349 13.7343C2.47471 14.1781 1.84845 14.2713 1.40469 13.9425C0.96093 13.6137 0.867724 12.9875 1.19651 12.5437ZM12.7028 17.0845L7.55455 11.9363C7.51864 12.1652 7.5 12.3999 7.5 12.639C7.5 15.1243 9.51472 17.139 12 17.139C12.2391 17.139 12.4738 17.1204 12.7028 17.0845Z" fill="url(#paint0_linear_7_6)"/>
<defs>
<linearGradient id="paint0_linear_7_6" x1="12" y1="3.87927" x2="12" y2="21.4761" gradientUnits="userSpaceOnUse">
<stop stop-color="#009FDA"/>
<stop offset="1" stop-color="#004E9B"/>
</linearGradient>
</defs>
</svg>
