<svg width="24" height="24" viewBox="0 0 24 24" fill="none" xmlns="http://www.w3.org/2000/svg">
<path fill-rule="evenodd" clip-rule="evenodd" d="M1 18C0.447715 18 0 17.5523 0 17V3C0 2.44772 0.447716 2 1 2H23C23.5523 2 24 2.44772 24 3V17C24 17.5523 23.5523 18 23 18H15.5C15.2239 18 15 18.2239 15 18.5V19.5C15 19.7761 15.2239 20 15.5 20H16C16.5523 20 17 20.4477 17 21C17 21.5523 16.5523 22 16 22H8C7.44772 22 7 21.5523 7 21C7 20.4477 7.44772 20 8 20H8.5C8.77614 20 9 19.7761 9 19.5V18.5C9 18.2239 8.77614 18 8.5 18H1ZM12.5 20C12.7761 20 13 19.7761 13 19.5V18.5C13 18.2239 12.7761 18 12.5 18H11.5C11.2239 18 11 18.2239 11 18.5V19.5C11 19.7761 11.2239 20 11.5 20H12.5ZM21.5 16C21.7761 16 22 15.7761 22 15.5V4.5C22 4.22386 21.7761 4 21.5 4H2.5C2.22386 4 2 4.22386 2 4.5V15.5C2 15.7761 2.22386 16 2.5 16H21.5ZM21 7C21 6.44772 20.5523 6 20 6C19.4477 6 19 6.44772 19 7V13C19 13.5523 19.4477 14 20 14C20.5523 14 21 13.5523 21 13V7ZM9 7H5H4C3.44772 7 3 7.44772 3 8V9V11V12C3 12.5523 3.44772 13 4 13H5H9H10C10.5523 13 11 12.5523 11 12V11V9V8C11 7.44772 10.5523 7 10 7H9ZM9 10.5C9 10.7761 8.77614 11 8.5 11H5.5C5.22386 11 5 10.7761 5 10.5V9.5C5 9.22386 5.22386 9 5.5 9H8.5C8.77614 9 9 9.22386 9 9.5V10.5ZM15 11C15 10.4477 14.5523 10 14 10C13.4477 10 13 10.4477 13 11V13C13 13.5523 13.4477 14 14 14C14.5523 14 15 13.5523 15 13V11ZM17 8C17.5523 8 18 8.44772 18 9V13C18 13.5523 17.5523 14 17 14C16.4477 14 16 13.5523 16 13V9C16 8.44772 16.4477 8 17 8Z" fill="url(#paint0_linear_81_2628)"/>
<defs>
<linearGradient id="paint0_linear_81_2628" x1="12" y1="2" x2="12" y2="22" gradientUnits="userSpaceOnUse">
<stop stop-color="#009FDA"/>
<stop offset="1" stop-color="#004E9B"/>
</linearGradient>
</defs>
</svg>
