<svg width="24" height="24" viewBox="0 0 24 24" fill="none" xmlns="http://www.w3.org/2000/svg">
<g id="Active">
<path id="Active_2" fill-rule="evenodd" clip-rule="evenodd" d="M0 12.005C0 5.37224 5.37224 0 11.995 0C18.6278 0 24 5.38224 24 12.005C24 18.6278 18.6178 24 11.995 24C5.37224 24 0 18.6378 0 12.005ZM2.00083 11.995C2.00083 17.5073 6.4827 21.9892 11.995 21.9892V21.9992C17.5073 21.9992 21.9892 17.5173 21.9892 12.005C21.9892 6.49271 17.4973 2.01084 11.995 2.01084C6.49271 2.01084 2.00083 6.4827 2.00083 11.995ZM12.9854 16.827V17.9775C12.9854 18.5177 12.5552 18.9779 12.015 18.9779C11.4748 18.9779 11.0146 18.5177 11.0146 17.9775V16.827H9.8341C9.28387 16.827 8.8837 16.3968 8.8837 15.8266C8.8837 15.3064 9.29387 14.8762 9.8341 14.8762H12.8153C13.3356 14.8762 13.7657 14.446 13.7657 13.9258C13.7657 13.3756 13.3356 12.9754 12.8153 12.9754H11.1847C9.604 12.9754 8.31347 11.6348 8.31347 10.0542C8.31347 8.47353 9.43393 7.18299 11.0146 7.18299V6.0025C11.0146 5.46228 11.4748 5.00208 12.015 5.00208C12.5552 5.00208 12.9854 5.46228 12.9854 6.0025V7.18299H14.1659C14.7161 7.18299 15.1163 7.58316 15.1163 8.1534C15.1163 8.67361 14.7061 9.10379 14.1659 9.10379H11.1847C10.6644 9.10379 10.2343 9.53397 10.2343 10.0542C10.2343 10.6044 10.6644 11.0046 11.1847 11.0046H12.8153C14.396 11.0046 15.6865 12.3151 15.6865 13.9258C15.6865 15.5365 14.5661 16.827 12.9854 16.827Z" fill="url(#paint0_linear_317_2676)"/>
</g>
<defs>
<linearGradient id="paint0_linear_317_2676" x1="12" y1="0" x2="12" y2="24" gradientUnits="userSpaceOnUse">
<stop stop-color="#009FDA"/>
<stop offset="1" stop-color="#004E9B"/>
</linearGradient>
</defs>
</svg>
