<svg width="24" height="24" viewBox="0 0 24 24" fill="none" xmlns="http://www.w3.org/2000/svg">
<g clip-path="url(#clip0_108_2641)">
<path fill-rule="evenodd" clip-rule="evenodd" d="M8.96379 0C8.4453 0 8.03649 0.45 8.03649 1C8.03649 1.55 8.45527 2 8.96379 2H21.4659C21.7421 2 21.9659 2.22386 21.9659 2.5V21.47C21.9659 21.7461 21.7421 21.97 21.4659 21.97H8.96379C8.4453 21.97 8.03649 22.42 8.03649 22.97C8.03649 23.52 8.45527 23.97 8.96379 23.97L23.0727 24C23.5812 24 24 23.55 24 23V2V1C24 0.45 23.5812 0 23.0727 0H22.1454H8.96379ZM7.62779 4.50002C7.99671 4.11002 8.59497 4.11002 8.9639 4.50002V4.48002L15.7741 11.27C16.1629 11.66 16.1629 12.3 15.7741 12.69L8.9639 19.48C8.59497 19.87 7.99671 19.87 7.62779 19.48C7.25886 19.09 7.25886 18.46 7.62779 18.07L12.4138 12.99H0.937271C0.41878 12.99 0 12.54 0 11.99C0 11.44 0.41878 10.99 0.937271 10.99H12.4138L7.62779 5.91002C7.25886 5.52002 7.25886 4.89002 7.62779 4.50002Z" fill="url(#paint0_linear_108_2641)"/>
</g>
<defs>
<linearGradient id="paint0_linear_108_2641" x1="12" y1="0" x2="12" y2="24" gradientUnits="userSpaceOnUse">
<stop stop-color="#009FDA"/>
<stop offset="1" stop-color="#004E9B"/>
</linearGradient>
<clipPath id="clip0_108_2641">
<rect width="24" height="24" fill="white"/>
</clipPath>
</defs>
</svg>
