<svg width="24" height="24" viewBox="0 0 24 24" fill="none" xmlns="http://www.w3.org/2000/svg">
<path d="M23 4.64001H5.86C5.3 4.64001 4.86 5.05401 4.86 5.56001V8.32001H1C0.45 8.32001 0 8.73401 0 9.24001V18.44C0 18.946 0.45 19.36 1 19.36H18.14C18.7 19.36 19.14 18.946 19.14 18.44V15.68H23C23.55 15.68 24 15.266 24 14.76V5.56001C24 5.05401 23.55 4.64001 23 4.64001ZM21.5 6.48001C21.7761 6.48001 22 6.70387 22 6.98001V7.82001C22 8.09616 21.7761 8.32001 21.5 8.32001H7.36C7.08386 8.32001 6.86 8.09616 6.86 7.82001V6.98001C6.86 6.70387 7.08386 6.48001 7.36 6.48001H21.5ZM4.86 10.16H16.64C16.9161 10.16 17.14 10.3839 17.14 10.66V11.408C17.14 11.6842 16.9161 11.908 16.64 11.908H2.5C2.22386 11.908 2 11.6842 2 11.408V10.66C2 10.3839 2.22386 10.16 2.5 10.16H4.86ZM17.14 17.02C17.14 17.2962 16.9161 17.52 16.64 17.52H2.5C2.22386 17.52 2 17.2962 2 17.02V14.248C2 13.9719 2.22386 13.748 2.5 13.748H16.64C16.9161 13.748 17.14 13.9719 17.14 14.248V17.02ZM19.64 13.84C19.3639 13.84 19.14 13.6162 19.14 13.34V10.66C19.14 10.3839 19.3639 10.16 19.64 10.16H21.5C21.7761 10.16 22 10.3839 22 10.66V13.34C22 13.6162 21.7761 13.84 21.5 13.84H19.64Z" fill="url(#paint0_linear_84_3262)"/>
<defs>
<linearGradient id="paint0_linear_84_3262" x1="12" y1="4.64001" x2="12" y2="19.36" gradientUnits="userSpaceOnUse">
<stop stop-color="#009FDA"/>
<stop offset="1" stop-color="#004E9B"/>
</linearGradient>
</defs>
</svg>
