<svg width="24" height="24" viewBox="0 0 24 24" fill="none" xmlns="http://www.w3.org/2000/svg">
<path fill-rule="evenodd" clip-rule="evenodd" d="M7 19C7 18.4 7.4 18 8 18C8.6 18 9 18.4 9 19V21C9 21.6 9.4 22 10 22H20C20.6 22 21 21.6 21 21V3C21 2.4 20.6 2 20 2H19C19 2.6 18.6 3 18 3H12C11.4 3 11 2.6 11 2H10C9.4 2 9 2.4 9 3V5C9 5.6 8.6 6 8 6C7.4 6 7 5.6 7 5V3V1C7 0.4 7.4 0 8 0H22C22.6 0 23 0.4 23 1V23C23 23.6 22.6 24 22 24H8C7.4 24 7 23.6 7 23V19ZM1 7.81667C1 7.36563 1.36563 7 1.81667 7H5.52612C6.28047 7 6.85869 7.19171 7.26077 7.57512C7.66641 7.95853 7.86923 8.43323 7.86923 8.99922C7.86923 9.47392 7.72512 9.88106 7.4369 10.2207C7.25371 10.4365 6.98966 10.6092 6.64474 10.7387C6.62958 10.7444 6.63065 10.7667 6.64632 10.7709C7.18168 10.9114 7.57686 11.1461 7.83187 11.475C8.09874 11.8109 8.23218 12.2345 8.23218 12.7457C8.23218 13.162 8.13788 13.5363 7.9493 13.8685C7.76071 14.2008 7.50273 14.4637 7.17537 14.6573C6.97255 14.7778 6.66654 14.8654 6.25734 14.9202C5.71292 14.9932 5.35176 15.0297 5.17385 15.0297H1.81667C1.36563 15.0297 1 14.6641 1 14.2131V7.81667ZM3.43919 9.82279C3.43919 10.0032 3.58545 10.1495 3.76586 10.1495H4.49066C4.86784 10.1495 5.12937 10.0837 5.27526 9.95227C5.4247 9.81716 5.49943 9.62363 5.49943 9.37167C5.49943 9.13798 5.4247 8.9554 5.27526 8.82394C5.12937 8.69249 4.87317 8.62676 4.50667 8.62676H3.76586C3.58545 8.62676 3.43919 8.77301 3.43919 8.95343V9.82279ZM3.43919 12.9777C3.43919 13.1581 3.58545 13.3044 3.76586 13.3044H4.67213C5.08845 13.3044 5.38201 13.2295 5.5528 13.0798C5.7236 12.9264 5.809 12.722 5.809 12.4664C5.809 12.229 5.7236 12.0391 5.5528 11.8967C5.38556 11.7507 5.09023 11.6776 4.66679 11.6776H3.76586C3.58545 11.6776 3.43919 11.8239 3.43919 12.0043V12.9777ZM9.08034 13.773C9.00951 13.5899 9.14652 13.4028 9.34194 13.3839L10.8726 13.2362C11.0236 13.2216 11.1604 13.3154 11.2314 13.4495C11.3064 13.5914 11.3973 13.7 11.504 13.7754C11.6641 13.8886 11.8776 13.9452 12.1445 13.9452C12.4363 13.9452 12.6622 13.8813 12.8223 13.7535C12.9469 13.6586 13.0091 13.5399 13.0091 13.3975C13.0091 13.2368 12.9273 13.1127 12.7636 13.025C12.6462 12.963 12.3349 12.8863 11.8296 12.795C11.0752 12.6599 10.5504 12.5357 10.2551 12.4225C9.96327 12.3057 9.71597 12.1103 9.51315 11.8365C9.31389 11.5626 9.21426 11.2504 9.21426 10.8998C9.21426 10.5164 9.32279 10.186 9.53984 9.90845C9.7569 9.63093 10.0558 9.42462 10.4365 9.28952C10.8173 9.15076 11.3279 9.08138 11.9684 9.08138C12.6444 9.08138 13.1426 9.13433 13.4628 9.24022C13.7866 9.34611 14.0553 9.51043 14.2688 9.73318C14.406 9.87399 14.5283 10.0462 14.6356 10.2498C14.7356 10.4393 14.5992 10.658 14.386 10.6796L13.0193 10.8176C12.862 10.8335 12.7244 10.7283 12.6369 10.5967C12.5932 10.5309 12.5412 10.4768 12.4807 10.4343C12.31 10.3174 12.1036 10.259 11.8616 10.259C11.6161 10.259 11.4364 10.3046 11.3225 10.3959C11.2122 10.4836 11.1571 10.5913 11.1571 10.7191C11.1571 10.8615 11.2282 10.9692 11.3706 11.0423C11.5129 11.1153 11.8225 11.181 12.2993 11.2394C13.0216 11.3234 13.5589 11.4403 13.9112 11.59C14.2634 11.7397 14.5321 11.9533 14.7171 12.2308C14.9057 12.5083 15 12.8133 15 13.1455C15 13.4815 14.9004 13.8083 14.7011 14.126C14.5054 14.4437 14.1941 14.6974 13.7671 14.8873C13.3436 15.0736 12.7654 15.1667 12.0324 15.1667C10.997 15.1667 10.2586 15.0151 9.81739 14.7121C9.47701 14.4763 9.23133 14.1633 9.08034 13.773ZM17 20C17 20.6 16.6 21 16 21H14C13.4 21 13 20.6 13 20C13 19.4 13.4 19 14 19H16C16.6 19 17 19.4 17 20Z" fill="url(#paint0_linear_84_3084)"/>
<defs>
<linearGradient id="paint0_linear_84_3084" x1="12" y1="0" x2="12" y2="24" gradientUnits="userSpaceOnUse">
<stop stop-color="#009FDA"/>
<stop offset="1" stop-color="#004E9B"/>
</linearGradient>
</defs>
</svg>
