<svg width="24" height="25" viewBox="0 0 24 25" fill="none" xmlns="http://www.w3.org/2000/svg">
<g id="Active">
<path id="Solicitudes" fill-rule="evenodd" clip-rule="evenodd" d="M20.7495 0.0115641C21.5468 -0.0584359 22.3241 0.191564 22.9321 0.701564C23.54 1.21156 23.9187 1.95156 23.9885 2.74156C24.0582 3.53156 23.8091 4.32156 23.3008 4.93156L17.939 11.3116L15.9458 13.6916L14.0523 15.9416L8.69047 19.1116C7.88322 19.6016 6.9165 18.7816 7.25535 17.8916L9.48776 12.0716L15.9458 4.38156L17.939 2.01156L18.7264 1.07156C19.2346 0.461564 19.9622 0.0815641 20.7495 0.0115641ZM15.9458 10.5916L17.939 8.22156L20.0273 5.74386C20.3823 5.32263 20.3292 4.69348 19.9087 4.33768C19.4871 3.981 18.856 4.03415 18.5 4.45631L17.939 5.12156L15.9458 7.49156L11.0126 13.3616L9.82661 16.3216L12.5274 14.6516L15.9458 10.5916ZM14.9492 2L13.9526 2.00159H2.99322C2.44094 2.00159 1.99322 2.4493 1.99322 3.00159V21.0016C1.99322 21.5539 2.44094 22.0016 2.99322 22.0016H14.9458C15.4981 22.0016 15.9458 21.5539 15.9458 21.0016V16.9966C15.9458 16.4462 16.392 16 16.9424 16C17.4928 16 17.939 16.4462 17.939 16.9966V23.0016C17.939 23.5516 17.4905 24.0016 16.9424 24.0016H0.996612C0.438509 24.0016 0 23.5516 0 23.0016V1.00159C0 0.451587 0.438509 0.00158691 0.996612 0.00158691H14.9492C15.4973 0.00158691 15.9458 0.451587 15.9458 1.00159V1.01491C15.9458 1.56347 15.4977 2.00638 14.9492 2Z" fill="url(#paint0_linear_317_2924)"/>
</g>
<defs>
<linearGradient id="paint0_linear_317_2924" x1="12" y1="0" x2="12" y2="24.0016" gradientUnits="userSpaceOnUse">
<stop stop-color="#009FDA"/>
<stop offset="1" stop-color="#004E9B"/>
</linearGradient>
</defs>
</svg>
