<svg width="24" height="24" viewBox="0 0 24 24" fill="none" xmlns="http://www.w3.org/2000/svg">
<path fill-rule="evenodd" clip-rule="evenodd" d="M24 14C24 14.5523 23.5523 15 23 15H22.177C21.7681 15 21.405 15.2507 21.2552 15.6312C21.2199 15.7208 21.1836 15.8109 21.1457 15.9007C20.9675 16.3235 21.0276 16.8276 21.3521 17.1521L21.7929 17.5929C22.1834 17.9834 22.1834 18.6166 21.7929 19.0071L19.0071 21.7929C18.6166 22.1834 17.9834 22.1834 17.5929 21.7929L17.1521 21.3521C16.8276 21.0276 16.3264 20.9724 15.9065 21.1575C15.8312 21.1907 15.7549 21.2228 15.6774 21.254C15.2781 21.4148 15 21.7903 15 22.2208V23C15 23.5523 14.5523 24 14 24H10C9.44772 24 9 23.5523 9 23V22.177C9 21.7681 8.74926 21.405 8.36881 21.2552C8.27924 21.2199 8.18913 21.1836 8.09934 21.1457C7.67649 20.9675 7.17238 21.0276 6.84791 21.3521L6.40711 21.7929C6.01658 22.1834 5.38342 22.1834 4.99289 21.7929L2.20711 19.0071C1.81658 18.6166 1.81658 17.9834 2.20711 17.5929L2.64791 17.1521C2.97238 16.8276 3.02758 16.3264 2.84248 15.9065C2.80928 15.8312 2.77722 15.7549 2.74599 15.6774C2.58516 15.2781 2.20967 15 1.77924 15H1C0.447715 15 0 14.5523 0 14V10C0 9.44772 0.447715 9 1 9H1.65287C2.14171 9 2.5626 8.64438 2.74577 8.19115C2.78024 8.10584 2.8161 8.02066 2.85222 7.93485C2.86043 7.91534 2.86865 7.89579 2.87688 7.87621C3.02357 7.52699 2.93082 7.13082 2.66298 6.86298L2.10711 6.30711C1.71658 5.91658 1.71658 5.28342 2.10711 4.89289L4.91281 2.08719C5.29547 1.70453 5.91311 1.69571 6.30654 2.06729L6.93537 2.66118C7.21867 2.92874 7.62911 3.00156 7.98425 2.84118C8.05293 2.81017 8.12229 2.77943 8.19258 2.74969C8.64277 2.55918 9 2.14171 9 1.65287V1C9 0.447715 9.44772 0 10 0H14C14.5523 0 15 0.447715 15 1V1.82297C15 2.23187 15.2507 2.59497 15.6312 2.74482C15.7208 2.7801 15.8109 2.81644 15.9007 2.85428C16.3235 3.03248 16.8276 2.97238 17.1521 2.64791L17.5929 2.20711C17.9834 1.81658 18.6166 1.81658 19.0071 2.20711L21.7929 4.99289C22.1834 5.38342 22.1834 6.01658 21.7929 6.40711L21.3521 6.84791C21.0276 7.17238 20.9724 7.67364 21.1575 8.09352C21.1907 8.16883 21.2228 8.24509 21.254 8.32262C21.4148 8.72187 21.7903 9 22.2208 9H23C23.5523 9 24 9.44772 24 10V14ZM19.8304 13.4322C19.8769 13.1859 20.0872 13 20.3378 13H21.5C21.7761 13 22 12.7761 22 12.5V11.5C22 11.2239 21.7761 11 21.5 11H20.3378C20.0872 11 19.8767 10.8141 19.8329 10.5674C19.6265 9.40475 19.224 8.36875 18.5749 7.4594C18.4256 7.25032 18.4383 6.96168 18.62 6.78004L19.4464 5.95355C19.6417 5.75829 19.6417 5.44171 19.4464 5.24645L18.7536 4.55355C18.5583 4.35829 18.2417 4.35829 18.0464 4.55355L17.2021 5.39789C17.0281 5.57187 16.7543 5.59213 16.5483 5.45767C15.6275 4.85681 14.5371 4.39527 13.4273 4.17332C13.1833 4.12452 13 3.91518 13 3.66635V2.5C13 2.22386 12.7761 2 12.5 2H11.5C11.2239 2 11 2.22386 11 2.5V3.66224C11 3.91284 10.8141 4.12326 10.5674 4.16707C9.40475 4.37348 8.36875 4.77604 7.4594 5.42512C7.25032 5.57436 6.96168 5.56168 6.78004 5.38004L5.95355 4.55355C5.75829 4.35829 5.44171 4.35829 5.24645 4.55355L4.55355 5.24645C4.35829 5.44171 4.35829 5.75829 4.55355 5.95355L5.39789 6.79789C5.57187 6.97187 5.59213 7.2457 5.45767 7.45174C4.85681 8.3725 4.39527 9.46295 4.17332 10.5727C4.12452 10.8167 3.91518 11 3.66635 11H2.5C2.22386 11 2 11.2239 2 11.5V12.5C2 12.7761 2.22386 13 2.5 13H3.66224C3.91284 13 4.12326 13.1859 4.16707 13.4326C4.37348 14.5953 4.77604 15.6313 5.42512 16.5406C5.57436 16.7497 5.56168 17.0383 5.38004 17.22L4.55355 18.0464C4.35829 18.2417 4.35829 18.5583 4.55355 18.7536L5.24645 19.4464C5.44171 19.6417 5.75829 19.6417 5.95355 19.4464L6.79789 18.6021C6.97187 18.4281 7.2457 18.4079 7.45174 18.5423C8.3725 19.1432 9.46295 19.6047 10.5727 19.8267C10.8167 19.8755 11 20.0848 11 20.3336V21.5C11 21.7761 11.2239 22 11.5 22H12.5C12.7761 22 13 21.7761 13 21.5V20.3378C13 20.0872 13.1859 19.8767 13.4326 19.8329C14.5953 19.6265 15.6313 19.224 16.5406 18.5749C16.7497 18.4256 17.0383 18.4383 17.22 18.62L18.0464 19.4464C18.2417 19.6417 18.5583 19.6417 18.7536 19.4464L19.4464 18.7536C19.6417 18.5583 19.6417 18.2417 19.4464 18.0464L18.6021 17.2021C18.4281 17.0281 18.4078 16.7543 18.5437 16.5491C19.1473 15.6376 19.6101 14.5986 19.8304 13.4322ZM15 12C15 10.3 13.7 9 12 9C10.3 9 9 10.3 9 12C9 13.7 10.3 15 12 15C13.7 15 15 13.7 15 12ZM7 12C7 9.2 9.2 7 12 7C14.8 7 17 9.2 17 12C17 14.8 14.8 17 12 17C9.2 17 7 14.8 7 12Z" fill="url(#paint0_linear_36_5157)"/>
<defs>
<linearGradient id="paint0_linear_36_5157" x1="12" y1="0" x2="12" y2="24" gradientUnits="userSpaceOnUse">
<stop stop-color="#009FDA"/>
<stop offset="1" stop-color="#004E9B"/>
</linearGradient>
</defs>
</svg>
