<svg width="42" height="18" viewBox="0 0 42 18" fill="none" xmlns="http://www.w3.org/2000/svg">
<path d="M3.21512 3.35938H0L0.407893 0.998413H9.55438L9.14649 3.35938H6.03835L4.33881 12.9084H1.53258L3.21512 3.35938Z" fill="url(#paint0_linear_36_5259)"/>
<path fill-rule="evenodd" clip-rule="evenodd" d="M24.0675 15.9484L25.2041 13.9634C25.8483 14.4718 26.6384 14.7602 27.4585 14.7864C28.7202 14.7864 29.2881 14.2324 29.519 12.8724L29.572 12.5514C29.6542 12.0503 29.7671 11.5547 29.9099 11.0674H29.8739C29.6356 11.6226 29.2462 12.0996 28.7501 12.4442C28.2539 12.7888 27.671 12.9871 27.0677 13.0164C25.718 13.0164 24.7064 11.8904 24.7064 10.1164C24.7064 6.25438 26.9057 3.91136 30.2288 3.91136C31.3818 3.88121 32.5325 4.03206 33.6388 4.35838L32.1473 12.6924C31.5965 15.7494 30.4777 17.0014 27.4936 17.0014C26.2706 17.0104 25.0744 16.6427 24.0675 15.9484ZM30.6737 6.31035L30.7267 5.95238C30.4663 5.88174 30.1964 5.85174 29.9269 5.86339C28.6842 5.86339 27.4406 7.16841 27.4406 9.65441C27.4406 10.3884 27.6535 10.8544 28.1504 10.8544C28.9521 10.8524 30.1419 9.92535 30.6737 6.31035ZM22.117 3.91333C18.9179 3.91333 16.5185 6.27237 16.5185 10.1724C16.5185 12.0504 17.5133 13.1193 18.8299 13.1193C20.1616 13.1193 21.0153 12.1724 21.6722 10.9564H21.7081C21.5841 11.5996 21.507 12.2509 21.4772 12.9053H24.0885C24.1616 11.3268 24.3514 9.75584 24.6563 8.20533L25.3321 4.46833C24.3079 4.07155 23.2149 3.88288 22.117 3.91333ZM22.4319 5.95234L22.3789 6.31037C21.8641 9.81937 20.7274 10.8524 19.9816 10.8524C19.4847 10.8524 19.2708 10.4413 19.2708 9.72632C19.2708 7.31132 20.5495 5.88135 21.7221 5.88135C21.9606 5.87878 22.1986 5.90258 22.4319 5.95234ZM11.6168 4.14639H9.07753L6.78516 16.8064H9.39644L10.0892 12.9984C10.4662 13.0929 10.8544 13.1349 11.2429 13.1234C14.2091 13.1234 16.4825 10.8884 16.4825 6.93637C16.4825 5.05837 15.5418 3.91342 14.1921 3.91342C12.7175 3.91342 11.9717 4.84338 11.2789 6.00638H11.2429C11.3859 5.41638 11.5108 4.84639 11.6168 4.14639ZM13.0194 6.22037C13.5163 6.22037 13.7302 6.6674 13.7302 7.4014C13.7302 9.9264 12.4876 11.2094 11.2259 11.2094C10.9566 11.2129 10.688 11.1826 10.4262 11.1194L10.4971 10.7624C11.1899 7.27542 12.2387 6.22037 13.0194 6.22037ZM38.4364 3.91344C35.5402 3.91344 33.3748 6.34545 33.3748 9.47545C33.343 9.95902 33.4141 10.4439 33.5834 10.8979C33.7527 11.352 34.0163 11.765 34.3569 12.1097C34.6975 12.4543 35.1073 12.7228 35.5593 12.8974C36.0112 13.072 36.495 13.1486 36.9788 13.1224C39.946 13.1224 41.9884 10.8345 41.9884 7.59746C42.0283 7.11475 41.9649 6.62906 41.8023 6.17283C41.6397 5.7166 41.3817 5.30027 41.0456 4.95164C40.7094 4.60302 40.3028 4.33014 39.8529 4.15111C39.403 3.97207 38.9201 3.89103 38.4364 3.91344ZM38.2044 5.93046C38.9862 5.93046 39.3412 6.53842 39.3412 7.57542V7.57646C39.3412 9.04346 38.6494 11.0994 37.2288 11.0994C36.428 11.0994 36.0731 10.4185 36.0731 9.39946C36.0731 7.93046 36.8718 5.93046 38.2044 5.93046Z" fill="url(#paint1_linear_36_5259)"/>
<defs>
<linearGradient id="paint0_linear_36_5259" x1="0" y1="6.9534" x2="9.55438" y2="6.9534" gradientUnits="userSpaceOnUse">
<stop stop-color="#E8521D"/>
<stop offset="1" stop-color="#F8AF2A"/>
</linearGradient>
<linearGradient id="paint1_linear_36_5259" x1="24.3926" y1="3.90759" x2="24.3926" y2="17.0016" gradientUnits="userSpaceOnUse">
<stop stop-color="#009FDA"/>
<stop offset="1" stop-color="#004E9B"/>
</linearGradient>
</defs>
</svg>
