<svg xmlns="http://www.w3.org/2000/svg" xmlns:xlink="http://www.w3.org/1999/xlink" width="24" height="18" viewBox="0 0 24 18">
  <defs>
    <linearGradient id="linear-gradient" x1="0.5" x2="0.5" y2="1" gradientUnits="objectBoundingBox">
      <stop offset="0" stop-color="#009fda"/>
      <stop offset="1" stop-color="#004e9b"/>
    </linearGradient>
  </defs>
  <path id="Transferencias" d="M8-26a2,2,0,0,1-2-2V-42a2,2,0,0,1,2-2H28a2,2,0,0,1,2,2v14a2,2,0,0,1-2,2ZM8-41v12a1,1,0,0,0,1,1H27a1,1,0,0,0,1-1V-41a1,1,0,0,0-1-1H9A1,1,0,0,0,8-41Zm11.891,9.245a1.179,1.179,0,0,1-.013-1.667,1.179,1.179,0,0,1,1.667.013,1.179,1.179,0,0,1,.013,1.667,1.154,1.154,0,0,1-.822.339A1.192,1.192,0,0,1,19.891-31.756Zm-5.5.013a.785.785,0,0,1-.009-1.111l6.065-6.064a.784.784,0,0,1,1.111.008.786.786,0,0,1,.009,1.111L15.5-31.734a.775.775,0,0,1-.548.226A.793.793,0,0,1,14.391-31.743Zm.013-5.5a1.179,1.179,0,0,1-.013-1.667,1.179,1.179,0,0,1,1.667.013,1.18,1.18,0,0,1,.013,1.668,1.156,1.156,0,0,1-.821.338A1.193,1.193,0,0,1,14.4-37.243Z" transform="translate(-6 44)" fill="url(#linear-gradient)"/>
</svg>
