<svg width="24" height="24" viewBox="0 0 24 24" fill="none" xmlns="http://www.w3.org/2000/svg">
<path fill-rule="evenodd" clip-rule="evenodd" d="M4.91 4.16321H23.09C23.59 4.16321 24 4.60402 24 5.1428V18.8571C24 19.3959 23.59 19.8367 23.09 19.8367H4.91C4.41 19.8367 4 19.3959 4 18.8571C4 18.3183 4.41 17.8775 4.91 17.8775H21C21.5523 17.8775 22 17.4298 22 16.8775V7.12239C22 6.57011 21.5523 6.12239 21 6.12239H4.91C4.41 6.12239 4 5.68158 4 5.1428C4 4.60402 4.41 4.16321 4.91 4.16321ZM7 10.0408H3C2.45 10.0408 2 9.59994 2 9.06117C2 8.52239 2.45 8.08158 3 8.08158H7C7.55 8.08158 8 8.52239 8 9.06117C8 9.59994 7.55 10.0408 7 10.0408ZM8 14.9387C8 14.3999 7.55 13.9591 7 13.9591H3C2.45 13.9591 2 14.3999 2 14.9387C2 15.4775 2.45 15.9183 3 15.9183H7C7.55 15.9183 8 15.4775 8 14.9387ZM9 10.9518C9.55 10.9518 10 11.3926 10 11.9314C10 12.4702 9.55 12.911 9 12.911H1C0.45 12.911 0 12.4702 0 11.9314C0 11.3926 0.45 10.9518 1 10.9518H9Z" fill="url(#paint0_linear_83_2871)"/>
<defs>
<linearGradient id="paint0_linear_83_2871" x1="12" y1="4.16321" x2="12" y2="19.8367" gradientUnits="userSpaceOnUse">
<stop stop-color="#009FDA"/>
<stop offset="1" stop-color="#004E9B"/>
</linearGradient>
</defs>
</svg>
