<svg xmlns="http://www.w3.org/2000/svg" xmlns:xlink="http://www.w3.org/1999/xlink" width="24" height="24" viewBox="0 0 24 24">
  <defs>
    <linearGradient id="linear-gradient" x1="0.5" x2="0.5" y2="1" gradientUnits="objectBoundingBox">
      <stop offset="0" stop-color="#229bda"/>
      <stop offset="0.538" stop-color="#0e6db2"/>
      <stop offset="1" stop-color="#004a95"/>
    </linearGradient>
    <linearGradient id="linear-gradient-2" x1="0.5" x2="0.5" y2="1" gradientUnits="objectBoundingBox">
      <stop offset="0" stop-color="#009fda"/>
      <stop offset="1" stop-color="#004e9b"/>
    </linearGradient>
  </defs>
  <g id="Ubic-1" transform="translate(-660 -266)">
    <rect id="Fondo" width="24" height="24" transform="translate(660 266)" fill="none"/>
    <g id="Gota">
      <path id="gota_1" data-name="gota 1" d="M57.938,603.853a6.072,6.072,0,0,1,6,6.127c0,1.859-2.334,6.245-6,11.322-3.667-5.076-6-9.462-6-11.322a6.071,6.071,0,0,1,6-6.127m0-2a8.064,8.064,0,0,0-8,8.127c0,3.512,4.9,10.5,7.027,13.381a1.207,1.207,0,0,0,1.945,0c2.132-2.878,7.028-9.869,7.028-13.381a8.065,8.065,0,0,0-8-8.127Z" transform="translate(614.062 -334.853)" fill="url(#linear-gradient)"/>
      <path id="circulo" d="M1040,1245a4,4,0,1,1,4-4A4,4,0,0,1,1040,1245Zm0-6a2,2,0,1,0,2,2A2,2,0,0,0,1040,1239Z" transform="translate(-368 -966)" fill="url(#linear-gradient-2)"/>
    </g>
  </g>
</svg>
