<svg width="24" height="24" viewBox="0 0 24 24" fill="none" xmlns="http://www.w3.org/2000/svg">
<path fill-rule="evenodd" clip-rule="evenodd" d="M7.9873 6V10H22.0018C22.5508 10 23 10.45 23 11V22.93C23 23.48 22.5508 23.93 22.0018 23.93L1.99819 24C1.44918 24 1 23.55 1 23V11C1 10.45 1.44918 10 1.99819 10H5.99093V6C5.99093 2.69 8.67604 0 11.98 0C15.284 0 17.9691 2.69 17.9691 6V7.00182C17.9691 7.5531 17.5222 8 16.971 8C16.4197 8 15.9728 7.5531 15.9728 7.00182V6C15.9728 3.79 14.186 2 11.98 2C9.77405 2 7.9873 3.79 7.9873 6ZM20.4637 21.93C20.7398 21.93 20.9637 21.7061 20.9637 21.43V12.5C20.9637 12.2239 20.7398 12 20.4637 12H3.49637C3.22023 12 2.99637 12.2239 2.99637 12.5V21.43C2.99637 21.7061 3.22023 21.93 3.49637 21.93H20.4637ZM17.9391 15.96C18.4904 15.96 18.9373 16.4077 18.9373 16.96C18.9373 17.5122 18.4904 17.96 17.9391 17.96C17.3878 17.96 16.9409 17.5122 16.9409 16.96C16.9409 16.4077 17.3878 15.96 17.9391 15.96ZM13.0979 16.96C13.0979 16.4077 12.651 15.96 12.0997 15.96C11.5485 15.96 11.1016 16.4077 11.1016 16.96C11.1016 17.5122 11.5485 17.96 12.0997 17.96C12.651 17.96 13.0979 17.5122 13.0979 16.96ZM6.09071 15.96C6.642 15.96 7.0889 16.4077 7.0889 16.96C7.0889 17.5122 6.642 17.96 6.09071 17.96C5.53943 17.96 5.09253 17.5122 5.09253 16.96C5.09253 16.4077 5.53943 15.96 6.09071 15.96Z" fill="url(#paint0_linear_108_2668)"/>
<defs>
<linearGradient id="paint0_linear_108_2668" x1="12" y1="0" x2="12" y2="24" gradientUnits="userSpaceOnUse">
<stop stop-color="#009FDA"/>
<stop offset="1" stop-color="#004E9B"/>
</linearGradient>
</defs>
</svg>
