<svg width="24" height="24" viewBox="0 0 24 24" fill="none" xmlns="http://www.w3.org/2000/svg">
<g clip-path="url(#clip0_108_2656)">
<path fill-rule="evenodd" clip-rule="evenodd" d="M8.38762 12.408C9.45156 13.1216 10.7144 13.5 11.9971 13.5V13.4892C13.7173 13.4892 15.3678 12.8081 16.5909 11.5863C17.8139 10.3646 18.5 8.71044 18.5 6.99139C18.5 5.70481 18.1122 4.43985 17.4062 3.3803C16.7003 2.32076 15.6761 1.48827 14.4928 0.990932C13.2996 0.504408 11.9971 0.374668 10.7343 0.623336C9.47145 0.882815 8.30808 1.49908 7.40323 2.40726C6.48844 3.31543 5.87196 4.47228 5.62337 5.73724C5.37479 6.99139 5.50405 8.2996 5.99128 9.48888C6.48844 10.6782 7.32369 11.6945 8.38762 12.408ZM9.59077 3.40193C10.3067 2.92622 11.1419 2.66674 11.9971 2.66674V2.67755C13.1405 2.67755 14.2443 3.13164 15.0596 3.94251C15.875 4.75338 16.3324 5.85617 16.3324 7.0022C16.3324 7.86714 16.0838 8.69963 15.6065 9.4132C15.1292 10.1268 14.4531 10.689 13.6576 11.0133C12.8621 11.3485 11.9971 11.4242 11.1519 11.262C10.3166 11.089 9.54105 10.6782 8.93451 10.0727C8.32796 9.46726 7.92029 8.69963 7.75125 7.85632C7.58221 7.01302 7.6717 6.13727 7.99983 5.34802C8.31802 4.55877 8.87485 3.87764 9.59077 3.40193ZM0.00710791 22.4267C-0.0634924 22.996 0.400452 23.5 1.01568 23.5H22.9825C23.5977 23.5 24.0717 22.996 23.991 22.4361C23.7591 20.7282 23.1136 19.0763 22.1151 17.583C21.0359 15.9405 19.4726 14.5779 17.5866 13.6073C17.2638 13.4393 16.8604 13.4766 16.5477 13.6633C15.2063 14.4379 13.6128 14.8579 11.989 14.8579C10.3652 14.8579 8.77163 14.4379 7.43022 13.6633C7.11756 13.4766 6.71413 13.4393 6.39139 13.6073C4.50535 14.5686 2.94206 15.9405 1.86289 17.583C0.864397 19.0763 0.23908 20.7282 0.00710791 22.4267ZM2.62026 20.9843C3.43197 18.8889 5.06337 16.7424 7.16799 15.5485L7.17808 15.5392C7.17808 15.5392 10.3248 16.7431 12.0092 16.7431C13.6935 16.7431 15.3375 16.3418 16.7495 15.5765H16.7595C19.0238 16.8593 20.6613 18.7924 21.3929 21.0098C21.4947 21.3185 21.2668 21.6241 20.9417 21.6241H3.06427C2.72766 21.6241 2.49867 21.2982 2.62026 20.9843Z" fill="url(#paint0_linear_108_2656)"/>
</g>
<defs>
<linearGradient id="paint0_linear_108_2656" x1="12" y1="0.5" x2="12" y2="23.5" gradientUnits="userSpaceOnUse">
<stop stop-color="#009FDA"/>
<stop offset="1" stop-color="#004E9B"/>
</linearGradient>
<clipPath id="clip0_108_2656">
<rect width="24" height="24" fill="white"/>
</clipPath>
</defs>
</svg>
